<svg xmlns="http://www.w3.org/2000/svg" viewBox="0 0 81.27 81.27"><defs><style>.cls-1{fill:#282827;}.cls-2{fill:#fff;}</style></defs><g id="Ebene_2" data-name="Ebene 2"><g id="Ebene_1-2" data-name="Ebene 1"><rect class="cls-1" width="81.27" height="81.27"/><path class="cls-2" d="M49,22.43,28.79,49.12a.58.58,0,0,1-.93,0l-6.52-8.59a.48.48,0,0,0-.87.29v18.3a1,1,0,0,1-1,1H10.44a1,1,0,0,1-1-1v-37a1,1,0,0,1,1-1h9.3a1.45,1.45,0,0,1,1.16.58l7,9.17a.58.58,0,0,0,.92,0l7-9.17a1.45,1.45,0,0,1,1.16-.58H48.41A.78.78,0,0,1,49,22.43Zm9.24,18.79a1,1,0,0,1,0-1.17L71.64,22.43A.78.78,0,0,0,71,21.18H59.5a1.44,1.44,0,0,0-1.15.57L36.47,50.61a1.42,1.42,0,0,0-.29.87v7.64a1,1,0,0,0,1,1H46.2a1,1,0,0,0,1-1V55.18a1.4,1.4,0,0,1,.3-.88l2.84-3.75a.78.78,0,0,1,1.24,0l6.8,9a1.45,1.45,0,0,0,1.16.58H70.63a1,1,0,0,0,.77-1.56Z"/></g></g></svg>